<?xml version="1.0" encoding="UTF-8"?>
<!DOCTYPE svg PUBLIC "-//W3C//DTD SVG 1.1//EN" "http://www.w3.org/Graphics/SVG/1.1/DTD/svg11.dtd">
<svg
	xmlns="http://www.w3.org/2000/svg"
	version="1.1"
	width="96px"
	height="96px"
	style="shape-rendering: geometricPrecision; text-rendering: geometricPrecision; image-rendering: optimizeQuality; fill-rule: evenodd; clip-rule: evenodd"
	xmlns:xlink="http://www.w3.org/1999/xlink"
>
	<g><path
			style="opacity: 0.988"
			fill="#2b363c"
			d="M 73.5,62.5 C 70.6749,63.1434 68.1749,64.4767 66,66.5C 63.9803,65.9681 63.147,64.6348 63.5,62.5C 67.1702,59.7946 68.3369,56.1279 67,51.5C 66.5829,54.422 65.5829,57.0887 64,59.5C 62.0229,50.5476 59.1895,41.8809 55.5,33.5C 55.5674,32.0413 55.2341,30.7079 54.5,29.5C 56.8326,23.8606 55.1659,21.5273 49.5,22.5C 48.6906,24.0709 48.3573,25.7376 48.5,27.5C 47.5,27.5 46.5,27.5 45.5,27.5C 46.2634,23.8622 44.9301,22.3622 41.5,23C 40.1888,25.2735 40.1888,27.4402 41.5,29.5C 39.4008,30.8149 39.0674,32.4816 40.5,34.5C 40.0331,40.7753 37.8664,46.442 34,51.5C 33.3333,58.1667 32.6667,58.1667 32,51.5C 31.3333,54.5 31.3333,57.5 32,60.5C 35.2974,62.7954 38.2974,65.462 41,68.5C 41.5946,69.8989 41.4279,71.2322 40.5,72.5C 41.09,73.7989 42.09,74.6322 43.5,75C 48.5556,76.0892 53.2223,75.2559 57.5,72.5C 57.5,75.1667 57.5,77.8333 57.5,80.5C 52.2599,79.5509 46.9265,79.2175 41.5,79.5C 39.1594,72.4968 35.4928,66.1634 30.5,60.5C 29.3112,59.5713 27.9778,59.238 26.5,59.5C 28.208,50.7507 32.0413,43.0841 38,36.5C 38.7089,32.1321 38.5423,27.7988 37.5,23.5C 39.14,11.6779 45.4733,8.17789 56.5,13C 58.0412,14.5793 59.2078,16.4127 60,18.5C 59.8647,23.8452 60.8647,29.1785 63,34.5C 68.4384,41.3769 72.2718,49.0436 74.5,57.5C 73.9537,59.1347 73.6204,60.8014 73.5,62.5 Z"
		/></g>
	<g><path
			style="opacity: 1"
			fill="#cbced0"
			d="M 54.5,29.5 C 53.209,29.7373 52.209,29.404 51.5,28.5C 53.6516,27.9232 53.985,26.7565 52.5,25C 50.5106,24.4808 49.5106,25.3141 49.5,27.5C 49.1667,27.5 48.8333,27.5 48.5,27.5C 48.3573,25.7376 48.6906,24.0709 49.5,22.5C 55.1659,21.5273 56.8326,23.8606 54.5,29.5 Z"
		/></g>
	<g><path
			style="opacity: 1"
			fill="#c8cccd"
			d="M 45.5,27.5 C 44.8333,27.5 44.1667,27.5 43.5,27.5C 43.719,26.325 43.3857,25.325 42.5,24.5C 41.218,25.9584 41.218,27.2918 42.5,28.5C 42.5,29.1667 42.1667,29.5 41.5,29.5C 40.1888,27.4402 40.1888,25.2735 41.5,23C 44.9301,22.3622 46.2634,23.8622 45.5,27.5 Z"
		/></g>
	<g><path
			style="opacity: 1"
			fill="#2a2a29"
			d="M 51.5,28.5 C 50.5084,28.6716 49.8417,28.3382 49.5,27.5C 49.5106,25.3141 50.5106,24.4808 52.5,25C 53.985,26.7565 53.6516,27.9232 51.5,28.5 Z"
		/></g>
	<g><path
			style="opacity: 1"
			fill="#282827"
			d="M 43.5,27.5 C 43.5,28.1667 43.1667,28.5 42.5,28.5C 41.218,27.2918 41.218,25.9584 42.5,24.5C 43.3857,25.325 43.719,26.325 43.5,27.5 Z"
		/></g>
	<g><path
			style="opacity: 1"
			fill="#ebb211"
			d="M 43.5,27.5 C 44.1667,27.5 44.8333,27.5 45.5,27.5C 46.5,27.5 47.5,27.5 48.5,27.5C 48.8333,27.5 49.1667,27.5 49.5,27.5C 49.8417,28.3382 50.5084,28.6716 51.5,28.5C 52.209,29.404 53.209,29.7373 54.5,29.5C 55.2341,30.7079 55.5674,32.0413 55.5,33.5C 52.5198,35.2391 49.3531,36.5724 46,37.5C 43.8077,37.1373 41.9744,36.1373 40.5,34.5C 39.0674,32.4816 39.4008,30.8149 41.5,29.5C 42.1667,29.5 42.5,29.1667 42.5,28.5C 43.1667,28.5 43.5,28.1667 43.5,27.5 Z"
		/></g>
	<g><path
			style="opacity: 1"
			fill="#e7eaec"
			d="M 55.5,33.5 C 59.1895,41.8809 62.0229,50.5476 64,59.5C 65.5829,57.0887 66.5829,54.422 67,51.5C 68.3369,56.1279 67.1702,59.7946 63.5,62.5C 61.9902,61.2721 60.4902,61.2721 59,62.5C 58.7515,65.9194 58.2515,69.2527 57.5,72.5C 53.2223,75.2559 48.5556,76.0892 43.5,75C 42.09,74.6322 41.09,73.7989 40.5,72.5C 41.4279,71.2322 41.5946,69.8989 41,68.5C 38.2974,65.462 35.2974,62.7954 32,60.5C 31.3333,57.5 31.3333,54.5 32,51.5C 32.6667,58.1667 33.3333,58.1667 34,51.5C 37.8664,46.442 40.0331,40.7753 40.5,34.5C 41.9744,36.1373 43.8077,37.1373 46,37.5C 49.3531,36.5724 52.5198,35.2391 55.5,33.5 Z"
		/></g>
	<g><path
			style="opacity: 0.967"
			fill="#fcbf08"
			d="M 26.5,59.5 C 27.9778,59.238 29.3112,59.5713 30.5,60.5C 35.4928,66.1634 39.1594,72.4968 41.5,79.5C 41.5113,82.8221 39.8446,84.4888 36.5,84.5C 30.1164,82.821 23.7831,80.9876 17.5,79C 18.8148,74.6897 18.8148,70.1897 17.5,65.5C 22.0274,65.6721 25.0274,63.6721 26.5,59.5 Z"
		/></g>
	<g><path
			style="opacity: 0.982"
			fill="#fcc00c"
			d="M 63.5,62.5 C 63.147,64.6348 63.9803,65.9681 66,66.5C 68.1749,64.4767 70.6749,63.1434 73.5,62.5C 74.0728,65.9631 75.9062,68.6297 79,70.5C 79.6667,71.8333 79.6667,73.1667 79,74.5C 74.5735,76.9623 70.4069,79.7956 66.5,83C 63.8333,83.6667 61.1667,83.6667 58.5,83C 57.7476,82.3292 57.4142,81.4959 57.5,80.5C 57.5,77.8333 57.5,75.1667 57.5,72.5C 58.2515,69.2527 58.7515,65.9194 59,62.5C 60.4902,61.2721 61.9902,61.2721 63.5,62.5 Z"
		/></g>
</svg>
