<svg width="512" height="512" viewBox="0 0 512 512" fill="none" xmlns="http://www.w3.org/2000/svg">
<circle cx="256" cy="256" r="256" fill="#05161E"/>
<path d="M278.465 155.676C267.65 142.914 258.332 129.862 256.44 127.183C256.401 127.127 256.348 127.081 256.287 127.049C256.226 127.017 256.159 127 256.09 127C256.021 127 255.953 127.017 255.892 127.049C255.831 127.081 255.779 127.127 255.74 127.183C253.848 129.862 244.532 142.914 233.718 155.676C141.026 273.761 248.348 353.431 248.348 353.431L249.218 354.035C250.031 366.362 252.053 384.076 252.053 384.076H260.129C260.129 384.076 262.142 366.438 262.959 354.115L263.835 353.431C263.835 353.431 371.155 273.761 278.465 155.676ZM256.091 351.699H256.09C256.09 351.699 251.279 347.595 249.981 345.539L249.969 345.318L255.789 216.757C255.792 216.68 255.825 216.606 255.882 216.552C255.938 216.498 256.013 216.468 256.091 216.468C256.169 216.468 256.244 216.498 256.3 216.552C256.357 216.606 256.39 216.68 256.394 216.757L262.213 345.318L262.202 345.538C260.904 347.594 256.091 351.699 256.091 351.699Z" fill="#00ED64"/>
</svg>
